<?xml version="1.0" encoding="UTF-8" standalone="no"?>
<!-- Created with Inkscape (http://www.inkscape.org/) -->

<svg
   width="130.65758mm"
   height="24.00223mm"
   viewBox="0 0 130.65758 24.00223"
   version="1.1"
   id="svg309"
   inkscape:export-filename="boolbnb-logo-sm.png"
   inkscape:export-xdpi="42.329403"
   inkscape:export-ydpi="42.329403"
   inkscape:version="1.2.2 (732a01da63, 2022-12-09)"
   sodipodi:docname="logo-sm.svg"
   xmlns:inkscape="http://www.inkscape.org/namespaces/inkscape"
   xmlns:sodipodi="http://sodipodi.sourceforge.net/DTD/sodipodi-0.dtd"
   xmlns="http://www.w3.org/2000/svg"
   xmlns:svg="http://www.w3.org/2000/svg">
  <sodipodi:namedview
     id="namedview311"
     pagecolor="#ffffff"
     bordercolor="#000000"
     borderopacity="0.25"
     inkscape:showpageshadow="2"
     inkscape:pageopacity="0.0"
     inkscape:pagecheckerboard="0"
     inkscape:deskcolor="#d1d1d1"
     inkscape:document-units="mm"
     showgrid="false"
     inkscape:zoom="0.93806818"
     inkscape:cx="-32.513628"
     inkscape:cy="125.79043"
     inkscape:window-width="2560"
     inkscape:window-height="1369"
     inkscape:window-x="-8"
     inkscape:window-y="-8"
     inkscape:window-maximized="1"
     inkscape:current-layer="layer1" />
  <defs
     id="defs306" />
  <g
     inkscape:label="Livello 1"
     inkscape:groupmode="layer"
     id="layer1"
     transform="translate(-65.26096,-115.76812)">
    <path
       d="m 96.04028,139.44319 q -2.59193,0 -4.6149,-1.10631 -2.02297,-1.13792 -3.1925,-3.09768 -1.16953,-1.95975 -1.16953,-4.45685 0,-2.52871 1.16953,-4.45686 1.16953,-1.95975 3.1925,-3.06606 2.02297,-1.10631 4.6149,-1.10631 2.62354,0 4.64651,1.10631 2.05458,1.10631 3.1925,3.03446 1.16953,1.92814 1.16953,4.48846 0,2.4971 -1.16953,4.45685 -1.13792,1.95976 -3.1925,3.09768 -2.02297,1.10631 -4.64651,1.10631 z m 0,-3.38215 q 1.45401,0 2.59193,-0.63218 1.13792,-0.63218 1.7701,-1.83332 0.66378,-1.20114 0.66378,-2.81319 0,-1.64366 -0.66378,-2.81319 -0.63218,-1.20114 -1.7701,-1.83332 -1.13792,-0.63218 -2.56032,-0.63218 -1.45401,0 -2.59193,0.63218 -1.10631,0.63218 -1.7701,1.83332 -0.66379,1.16953 -0.66379,2.81319 0,1.61205 0.66379,2.81319 0.66379,1.20114 1.7701,1.83332 1.13792,0.63218 2.56032,0.63218 z"
       id="path15076"
       style="font-weight:600;font-size:31.6089px;font-family:Montserrat;-inkscape-font-specification:'Montserrat Semi-Bold';letter-spacing:-0.740829px;fill:#0c8599;fill-opacity:1;stroke-width:2.34429;stroke-linecap:square;stroke-linejoin:round" />
    <path
       d="m 115.6872,139.44319 q -2.59193,0 -4.61489,-1.10631 -2.02297,-1.13792 -3.1925,-3.09768 -1.16953,-1.95975 -1.16953,-4.45685 0,-2.52871 1.16953,-4.45686 1.16953,-1.95975 3.1925,-3.06606 2.02296,-1.10631 4.61489,-1.10631 2.62354,0 4.64651,1.10631 2.05458,1.10631 3.1925,3.03446 1.16953,1.92814 1.16953,4.48846 0,2.4971 -1.16953,4.45685 -1.13792,1.95976 -3.1925,3.09768 -2.02297,1.10631 -4.64651,1.10631 z m 0,-3.38215 q 1.45401,0 2.59193,-0.63218 1.13792,-0.63218 1.7701,-1.83332 0.66379,-1.20114 0.66379,-2.81319 0,-1.64366 -0.66379,-2.81319 -0.63218,-1.20114 -1.7701,-1.83332 -1.13792,-0.63218 -2.56032,-0.63218 -1.45401,0 -2.59193,0.63218 -1.10631,0.63218 -1.77009,1.83332 -0.66379,1.16953 -0.66379,2.81319 0,1.61205 0.66379,2.81319 0.66378,1.20114 1.77009,1.83332 1.13792,0.63218 2.56032,0.63218 z"
       id="path15078"
       style="font-weight:600;font-size:31.6089px;font-family:Montserrat;-inkscape-font-specification:'Montserrat Semi-Bold';letter-spacing:-0.740829px;fill:#0c8599;fill-opacity:1;stroke-width:2.34429;stroke-linecap:square;stroke-linejoin:round" />
    <path
       d="m 127.74799,139.22193 v -23.45381 h 3.95112 v 23.45381 z"
       id="path15080"
       style="font-weight:600;font-size:31.6089px;font-family:Montserrat;-inkscape-font-specification:'Montserrat Semi-Bold';letter-spacing:-0.740829px;fill:#0c8599;fill-opacity:1;stroke-width:2.34429;stroke-linecap:square;stroke-linejoin:round" />
    <path
       d="m 145.49836,139.44319 q -2.14941,0 -3.82468,-0.94827 -1.67527,-0.94827 -2.65515,-2.8448 -0.94826,-1.92814 -0.94826,-4.86777 0,-2.97124 0.97987,-4.86777 1.01149,-1.89654 2.68676,-2.81319 1.70688,-0.94827 3.76146,-0.94827 2.4971,0 4.39364,1.0747 1.92814,1.07471 3.03445,3.00285 1.13792,1.92814 1.13792,4.55168 0,2.62354 -1.13792,4.55168 -1.10631,1.92814 -3.03445,3.03446 -1.89654,1.0747 -4.39364,1.0747 z m -9.35624,-0.22126 v -23.45381 h 3.95112 v 10.49416 l -0.31609,4.48846 0.12643,4.48846 v 3.98273 z m 8.91371,-3.16089 q 1.4224,0 2.52872,-0.63218 1.13792,-0.63218 1.8017,-1.83332 0.66379,-1.20114 0.66379,-2.81319 0,-1.64366 -0.66379,-2.81319 -0.66378,-1.20114 -1.8017,-1.83332 -1.10632,-0.63218 -2.52872,-0.63218 -1.4224,0 -2.56032,0.63218 -1.13792,0.63218 -1.8017,1.83332 -0.66379,1.16953 -0.66379,2.81319 0,1.61205 0.66379,2.81319 0.66378,1.20114 1.8017,1.83332 1.13792,0.63218 2.56032,0.63218 z"
       id="path15082"
       style="font-weight:600;font-size:31.6089px;font-family:Montserrat;-inkscape-font-specification:'Montserrat Semi-Bold';letter-spacing:-0.740829px;fill:#0c8599;fill-opacity:1;stroke-width:2.34429;stroke-linecap:square;stroke-linejoin:round" />
    <path
       d="m 166.66252,122.15312 q 2.02297,0 3.60342,0.79022 1.61205,0.79022 2.52871,2.43389 0.91666,1.61205 0.91666,4.17237 v 9.67233 h -3.95112 v -9.16659 q 0,-2.24423 -1.0747,-3.35054 -1.04309,-1.10631 -2.93963,-1.10631 -1.39079,0 -2.46549,0.56896 -1.0747,0.56896 -1.67527,1.70688 -0.56896,1.10631 -0.56896,2.81319 v 8.53441 h -3.95111 v -16.87916 h 3.76145 v 4.55168 l -0.66378,-1.39079 q 0.88505,-1.61205 2.56032,-2.46549 1.70688,-0.88505 3.9195,-0.88505 z"
       id="path15084"
       style="font-weight:600;font-size:31.6089px;font-family:Montserrat;-inkscape-font-specification:'Montserrat Semi-Bold';letter-spacing:-0.740829px;fill:#0c8599;fill-opacity:1;stroke-width:2.34429;stroke-linecap:square;stroke-linejoin:round" />
    <path
       d="m 187.35252,139.44319 q -2.14941,0 -3.82468,-0.94827 -1.67527,-0.94827 -2.65515,-2.8448 -0.94827,-1.92814 -0.94827,-4.86777 0,-2.97124 0.97988,-4.86777 1.01148,-1.89654 2.68676,-2.81319 1.70688,-0.94827 3.76146,-0.94827 2.4971,0 4.39363,1.0747 1.92815,1.07471 3.03446,3.00285 1.13792,1.92814 1.13792,4.55168 0,2.62354 -1.13792,4.55168 -1.10631,1.92814 -3.03446,3.03446 -1.89653,1.0747 -4.39363,1.0747 z m -9.35624,-0.22126 v -23.45381 h 3.95111 v 10.49416 l -0.31609,4.48846 0.12644,4.48846 v 3.98273 z m 8.91371,-3.16089 q 1.4224,0 2.52871,-0.63218 1.13792,-0.63218 1.80171,-1.83332 0.66379,-1.20114 0.66379,-2.81319 0,-1.64366 -0.66379,-2.81319 -0.66379,-1.20114 -1.80171,-1.83332 -1.10631,-0.63218 -2.52871,-0.63218 -1.4224,0 -2.56032,0.63218 -1.13792,0.63218 -1.80171,1.83332 -0.66378,1.16953 -0.66378,2.81319 0,1.61205 0.66378,2.81319 0.66379,1.20114 1.80171,1.83332 1.13792,0.63218 2.56032,0.63218 z"
       id="path15086"
       style="font-weight:600;font-size:31.6089px;font-family:Montserrat;-inkscape-font-specification:'Montserrat Semi-Bold';letter-spacing:-0.740829px;fill:#0c8599;fill-opacity:1;stroke-width:2.34429;stroke-linecap:square;stroke-linejoin:round" />
    <path
       id="path15088"
       style="font-weight:600;font-size:22.0318px;font-family:Montserrat;-inkscape-font-specification:'Montserrat Semi-Bold';letter-spacing:-0.516367px;fill:#0c8599;fill-opacity:1;stroke-width:2.34429;stroke-linecap:square;stroke-linejoin:round"
       d="m 75.62753,117.64175 -10.36657,0.002 v 9.71836 l 4.10781,-2.76454 v -3.72997 h 5.8168 c 1.43291,0 2.52764,0.25155 3.28623,0.75744 0.77968,0.50572 1.16996,1.27615 1.16996,2.30869 0,1.01148 -0.39028,1.77004 -1.16996,2.27576 -0.0235,0.0168 -0.0493,0.0302 -0.0745,0.0466 l -2.56001,-1.7211 -10.5763,7.11327 v 0.007 4.28806 3.82703 H 76.2602 c 2.86587,0 5.0249,-0.52709 6.47892,-1.58072 1.45398,-1.05361 2.18214,-2.52672 2.18214,-4.42326 0,-1.28544 -0.29549,-2.36162 -0.88567,-3.2256 -0.35241,-0.53513 -0.78585,-0.98897 -1.29996,-1.36234 l -0.003,-0.003 -0.0101,-0.007 c -0.002,-0.002 -0.003,-0.002 -0.007,-0.003 -0.0751,-0.054 -0.15362,-0.10531 -0.2321,-0.15596 l -1.3121,-0.88222 c 0.73064,-0.438 1.32723,-1.00118 1.78871,-1.69339 0.54792,-0.84291 0.82158,-1.85489 0.82158,-3.03495 0,-1.74903 -0.69604,-3.14113 -2.08683,-4.17368 -1.39079,-1.05364 -3.41298,-1.5807 -6.06814,-1.5807 z m 0.48704,10.99921 3.43187,2.30869 0.16803,0.1127 c 0.70949,0.50874 1.06595,1.27152 1.06595,2.28964 0,1.11684 -0.41224,1.92774 -1.23409,2.43347 -0.82184,0.50575 -2.00099,0.75918 -3.53929,0.75918 h -6.63837 v -2.64147 -0.72452 z" />
    <path
       id="path15090"
       style="fill:#0c8599;fill-opacity:1;stroke-width:11.2327;stroke-linecap:square;stroke-linejoin:round"
       d="m 75.62753,117.64175 -10.36657,0.002 v 9.42891 l 1.371,-0.63264 2.73681,-1.84245 v -3.72997 h 5.8168 c 1.43291,0 2.52764,0.25155 3.28623,0.75744 0.77968,0.50572 1.16996,1.27615 1.16996,2.30869 0,1.01148 -0.39028,1.77004 -1.16996,2.27576 -0.0235,0.0168 -0.0493,0.0302 -0.0745,0.0466 l 2.77494,1.86848 0.88221,-0.64653 c 6.4e-4,-5.4e-4 10e-4,-0.002 0.002,-0.002 0.34413,-0.3079 0.64563,-0.65649 0.90476,-1.04515 0.54788,-0.84292 0.82157,-1.8549 0.82157,-3.03495 0,-1.74904 -0.69606,-3.14114 -2.08682,-4.17369 -1.39079,-1.05364 -3.41301,-1.5807 -6.06815,-1.5807 z" />
  </g>
</svg>
